<svg xmlns="http://www.w3.org/2000/svg"> <style>:root svg:not(:target){display:none}</style>
    <svg id="like" width="14" height="16" viewBox="0 0 14 16" fill="currentColor" stroke="currentStroke">
        <g clip-path="url(#clip0_1_111)">
            <path fill-rule="evenodd" clip-rule="evenodd" d="M1.00025 10.063L3.75025 8.688L5.06225 4.219C5.06225 4.219 4.84425 2.219 4.71925 1C7.03125 1 7.15625 3.969 7.15625 3.969L7.40625 6.063C7.40625 6.063 9.77025 5.421 10.6253 5.251C11.8753 5.001 12.6883 5.688 12.3753 7C13.0313 7.407 13.0003 8.563 12.4693 9.063C12.9383 9.594 12.8443 10.844 12.1883 11.313C12.3503 12.431 11.9693 12.688 11.6883 12.938C11.4063 13.188 9.93825 14.001 8.28125 14.001C6.62525 14.001 5.18725 13.657 5.18725 13.657L3.03125 15C3.03125 15 2.21925 14.469 1.59425 12.876C0.969252 11.282 1.00025 10.063 1.00025 10.063Z" stroke-linejoin="round"/>
        </g>
        <defs>
            <clipPath id="clip0_1_111">
                <rect width="14" height="16" fill="white"/>
            </clipPath>
        </defs>
    </svg>

    <svg id="star" width="13" height="12" viewBox="0 0 13 12">
        <path d="M6.375 9.97771L2.78474 11.9593C2.54669 12.0907 2.26334 11.8842 2.31691 11.6184L3.11775 7.6442L0.104135 4.89617C-0.0976009 4.71222 0.0109123 4.37718 0.282514 4.34542L4.36191 3.86849L6.08556 0.183765C6.20017 -0.0612557 6.54982 -0.0612549 6.66444 0.183766L8.38809 3.86849L12.4675 4.34542C12.7391 4.37718 12.8476 4.71222 12.6459 4.89617L9.63225 7.6442L10.4331 11.6184C10.4867 11.8842 10.2033 12.0907 9.96525 11.9593L6.375 9.97771Z"/>
    </svg>

    <svg id="send-message" width="22" height="22" viewBox="0 0 22 22" fill="none">
        <path d="M0.000504511 11.7943L5.95749 14.5139L17.6432 4.88889L8.32519 15.6597L9.77636 22L11.5327 17.6455L18.3306 20.7778C18.2084 20.9007 22.1194 0.122905 21.9972 0C21.9972 0 -0.121699 11.7943 0.000504511 11.7943Z" fill="#FF4641"/>
    </svg>

    <svg id="flag" width="8" height="10" viewBox="0 0 8 10" fill="none">
        <path d="M7.27273 0.454545H0.909091V0H0V10H0.909091V5.90909H7.27273L5.90909 3.18182L7.27273 0.454545Z" fill="#FF4641"/>
    </svg>
</svg>